<mxfile host="app.diagrams.net" modified="2022-11-12T12:47:34.085Z" agent="5.0 (Macintosh; Intel Mac OS X 10_15_7) AppleWebKit/537.36 (KHTML, like Gecko) Chrome/107.0.0.0 Safari/537.36" etag="Ri0_ODIxvoec0cpDUxNE" version="20.5.1" type="github">
  <diagram id="9fnjXT7nlAm7Ix4f8WDv" name="Page-1">
    <mxGraphModel dx="2069" dy="578" grid="0" gridSize="10" guides="1" tooltips="1" connect="1" arrows="1" fold="1" page="1" pageScale="1" pageWidth="600" pageHeight="500" background="#EFF1F3" math="0" shadow="0">
      <root>
        <mxCell id="0" />
        <mxCell id="1" parent="0" />
        <mxCell id="-xf_uFu9KCXf6jcXoVjT-17" value="" style="shape=curlyBracket;whiteSpace=wrap;html=1;rounded=1;strokeColor=#808080;fillColor=#FDD276;gradientColor=none;fontSize=23;direction=west;strokeWidth=5;rotation=90;fontColor=#35699A;" parent="1" vertex="1">
          <mxGeometry x="646.1" y="924" width="47.8" height="954" as="geometry" />
        </mxCell>
        <mxCell id="IUmrRyyOjLcR-ym3fFmw-2" value="&lt;font style=&quot;font-size: 23px;&quot;&gt;7位 网络号&lt;/font&gt;" style="rounded=1;whiteSpace=wrap;html=1;fontSize=23;fillColor=#6DB5A8;" parent="1" vertex="1">
          <mxGeometry x="221" y="1061.1" width="210" height="60" as="geometry" />
        </mxCell>
        <mxCell id="IUmrRyyOjLcR-ym3fFmw-17" value="0" style="rounded=1;whiteSpace=wrap;html=1;fontSize=23;fillColor=#6DB5A8;" parent="1" vertex="1">
          <mxGeometry x="191" y="1061.1" width="30" height="60" as="geometry" />
        </mxCell>
        <mxCell id="IUmrRyyOjLcR-ym3fFmw-18" value="&lt;font style=&quot;font-size: 23px;&quot;&gt;1&lt;/font&gt;" style="rounded=1;whiteSpace=wrap;html=1;fontSize=23;fillColor=#B9E0A5;" parent="1" vertex="1">
          <mxGeometry x="191" y="1121.1" width="30" height="60" as="geometry" />
        </mxCell>
        <mxCell id="IUmrRyyOjLcR-ym3fFmw-19" value="&lt;font style=&quot;font-size: 23px;&quot;&gt;0&lt;/font&gt;" style="rounded=1;whiteSpace=wrap;html=1;fontSize=23;fillColor=#B9E0A5;" parent="1" vertex="1">
          <mxGeometry x="221" y="1121.1" width="30" height="60" as="geometry" />
        </mxCell>
        <mxCell id="IUmrRyyOjLcR-ym3fFmw-20" value="1" style="rounded=1;whiteSpace=wrap;html=1;fontSize=23;fillColor=#FFE599;" parent="1" vertex="1">
          <mxGeometry x="191" y="1181.1" width="30" height="60" as="geometry" />
        </mxCell>
        <mxCell id="IUmrRyyOjLcR-ym3fFmw-21" value="&lt;font style=&quot;font-size: 23px;&quot;&gt;1&lt;/font&gt;" style="rounded=1;whiteSpace=wrap;html=1;fontSize=23;fillColor=#FFE599;" parent="1" vertex="1">
          <mxGeometry x="221" y="1181.1" width="30" height="60" as="geometry" />
        </mxCell>
        <mxCell id="IUmrRyyOjLcR-ym3fFmw-22" value="&lt;font style=&quot;font-size: 23px;&quot;&gt;0&lt;/font&gt;" style="rounded=1;whiteSpace=wrap;html=1;fontSize=23;fillColor=#FFE599;" parent="1" vertex="1">
          <mxGeometry x="251" y="1181.1" width="30" height="60" as="geometry" />
        </mxCell>
        <mxCell id="IUmrRyyOjLcR-ym3fFmw-23" value="1" style="rounded=1;whiteSpace=wrap;html=1;fontSize=23;fillColor=#FDD276;" parent="1" vertex="1">
          <mxGeometry x="191" y="1241.1" width="30" height="60" as="geometry" />
        </mxCell>
        <mxCell id="IUmrRyyOjLcR-ym3fFmw-24" value="&lt;font style=&quot;font-size: 23px;&quot;&gt;1&lt;/font&gt;" style="rounded=1;whiteSpace=wrap;html=1;fontSize=23;fillColor=#FDD276;" parent="1" vertex="1">
          <mxGeometry x="221" y="1241.1" width="30" height="60" as="geometry" />
        </mxCell>
        <mxCell id="IUmrRyyOjLcR-ym3fFmw-25" value="&lt;font style=&quot;font-size: 23px;&quot;&gt;1&lt;/font&gt;" style="rounded=1;whiteSpace=wrap;html=1;fontSize=23;fillColor=#FDD276;" parent="1" vertex="1">
          <mxGeometry x="251" y="1241.1" width="30" height="60" as="geometry" />
        </mxCell>
        <mxCell id="IUmrRyyOjLcR-ym3fFmw-26" value="&lt;font style=&quot;font-size: 23px;&quot;&gt;0&lt;/font&gt;" style="rounded=1;whiteSpace=wrap;html=1;fontSize=23;fillColor=#FDD276;" parent="1" vertex="1">
          <mxGeometry x="281" y="1241.1" width="30" height="60" as="geometry" />
        </mxCell>
        <mxCell id="IUmrRyyOjLcR-ym3fFmw-27" value="1" style="rounded=1;whiteSpace=wrap;html=1;fontSize=23;fillColor=#7EC4C3;" parent="1" vertex="1">
          <mxGeometry x="191" y="1301.1" width="30" height="60" as="geometry" />
        </mxCell>
        <mxCell id="IUmrRyyOjLcR-ym3fFmw-28" value="&lt;font style=&quot;font-size: 23px;&quot;&gt;1&lt;/font&gt;" style="rounded=1;whiteSpace=wrap;html=1;fontSize=23;fillColor=#7EC4C3;" parent="1" vertex="1">
          <mxGeometry x="221" y="1301.1" width="30" height="60" as="geometry" />
        </mxCell>
        <mxCell id="IUmrRyyOjLcR-ym3fFmw-29" value="&lt;font style=&quot;font-size: 23px;&quot;&gt;1&lt;/font&gt;" style="rounded=1;whiteSpace=wrap;html=1;fontSize=23;fillColor=#7EC4C3;" parent="1" vertex="1">
          <mxGeometry x="251" y="1301.1" width="30" height="60" as="geometry" />
        </mxCell>
        <mxCell id="IUmrRyyOjLcR-ym3fFmw-30" value="&lt;font style=&quot;font-size: 23px;&quot;&gt;1&lt;/font&gt;" style="rounded=1;whiteSpace=wrap;html=1;fontSize=23;fillColor=#7EC4C3;" parent="1" vertex="1">
          <mxGeometry x="281" y="1301.1" width="30" height="60" as="geometry" />
        </mxCell>
        <mxCell id="IUmrRyyOjLcR-ym3fFmw-42" value="&lt;font style=&quot;font-size: 23px;&quot;&gt;14位 网络号&lt;/font&gt;" style="rounded=1;whiteSpace=wrap;html=1;fontSize=23;fillColor=#B9E0A5;" parent="1" vertex="1">
          <mxGeometry x="251" y="1121.1" width="421" height="60" as="geometry" />
        </mxCell>
        <mxCell id="IUmrRyyOjLcR-ym3fFmw-43" value="&lt;font style=&quot;font-size: 23px;&quot;&gt;21位 网络号&lt;/font&gt;" style="rounded=1;whiteSpace=wrap;html=1;fontSize=23;fillColor=#FFE599;" parent="1" vertex="1">
          <mxGeometry x="281" y="1181.1" width="630" height="60" as="geometry" />
        </mxCell>
        <mxCell id="IUmrRyyOjLcR-ym3fFmw-47" value="&lt;font style=&quot;font-size: 23px;&quot;&gt;28位 组播地址&lt;/font&gt;" style="rounded=1;whiteSpace=wrap;html=1;fontSize=23;fillColor=#FDD276;" parent="1" vertex="1">
          <mxGeometry x="311" y="1241.1" width="840" height="60" as="geometry" />
        </mxCell>
        <mxCell id="IUmrRyyOjLcR-ym3fFmw-50" value="&lt;font style=&quot;font-size: 23px;&quot;&gt;8位 主机号&lt;/font&gt;" style="rounded=1;whiteSpace=wrap;html=1;fontSize=23;fillColor=#FFE599;" parent="1" vertex="1">
          <mxGeometry x="911" y="1181.1" width="240" height="60" as="geometry" />
        </mxCell>
        <mxCell id="IUmrRyyOjLcR-ym3fFmw-51" value="&lt;font style=&quot;font-size: 23px;&quot;&gt;16位 主机号&lt;/font&gt;" style="rounded=1;whiteSpace=wrap;html=1;fontSize=23;fillColor=#B9E0A5;" parent="1" vertex="1">
          <mxGeometry x="671" y="1121.1" width="480" height="60" as="geometry" />
        </mxCell>
        <mxCell id="IUmrRyyOjLcR-ym3fFmw-52" value="&lt;font style=&quot;font-size: 23px;&quot;&gt;24位 主机号&lt;/font&gt;" style="rounded=1;whiteSpace=wrap;html=1;fontSize=23;fillColor=#6DB5A8;" parent="1" vertex="1">
          <mxGeometry x="431" y="1061.1" width="719" height="60" as="geometry" />
        </mxCell>
        <mxCell id="IUmrRyyOjLcR-ym3fFmw-53" value="&lt;font style=&quot;font-size: 23px;&quot;&gt;28位 留待后用&lt;/font&gt;" style="rounded=1;whiteSpace=wrap;html=1;fontSize=23;fillColor=#7EC4C3;" parent="1" vertex="1">
          <mxGeometry x="311" y="1301.1" width="840" height="60" as="geometry" />
        </mxCell>
        <mxCell id="IUmrRyyOjLcR-ym3fFmw-54" value="&lt;font style=&quot;font-size: 23px;&quot;&gt;A类地址&lt;/font&gt;" style="rounded=1;whiteSpace=wrap;html=1;fontSize=23;fillColor=#6DB5A8;" parent="1" vertex="1">
          <mxGeometry x="42" y="1061.1" width="149" height="60" as="geometry" />
        </mxCell>
        <mxCell id="IUmrRyyOjLcR-ym3fFmw-55" value="&lt;font style=&quot;font-size: 23px;&quot;&gt;B类地址&lt;/font&gt;" style="rounded=1;whiteSpace=wrap;html=1;fontSize=23;fillColor=#B9E0A5;" parent="1" vertex="1">
          <mxGeometry x="42" y="1121.1" width="149" height="60" as="geometry" />
        </mxCell>
        <mxCell id="IUmrRyyOjLcR-ym3fFmw-56" value="&lt;font style=&quot;font-size: 23px;&quot;&gt;C类地址&lt;/font&gt;" style="rounded=1;whiteSpace=wrap;html=1;fontSize=23;fillColor=#FFE599;" parent="1" vertex="1">
          <mxGeometry x="42" y="1181.1" width="149" height="60" as="geometry" />
        </mxCell>
        <mxCell id="IUmrRyyOjLcR-ym3fFmw-57" value="&lt;font style=&quot;font-size: 23px;&quot;&gt;D类地址&lt;/font&gt;" style="rounded=1;whiteSpace=wrap;html=1;fontSize=23;fillColor=#FDD276;" parent="1" vertex="1">
          <mxGeometry x="42" y="1241.1" width="149" height="60" as="geometry" />
        </mxCell>
        <mxCell id="IUmrRyyOjLcR-ym3fFmw-58" value="&lt;font style=&quot;font-size: 23px;&quot;&gt;E类地址&lt;/font&gt;" style="rounded=1;whiteSpace=wrap;html=1;fontSize=23;fillColor=#7EC4C3;" parent="1" vertex="1">
          <mxGeometry x="42" y="1301.1" width="149" height="60" as="geometry" />
        </mxCell>
        <mxCell id="IUmrRyyOjLcR-ym3fFmw-59" value="&lt;font color=&quot;#808080&quot; style=&quot;font-size: 31px;&quot;&gt;32位&lt;/font&gt;" style="text;html=1;strokeColor=none;fillColor=none;align=center;verticalAlign=middle;whiteSpace=wrap;rounded=0;fontSize=23;fontColor=#35699A;" parent="1" vertex="1">
          <mxGeometry x="623" y="1444.1" width="104" height="30" as="geometry" />
        </mxCell>
      </root>
    </mxGraphModel>
  </diagram>
</mxfile>
